<?xml version="1.0" encoding="utf-8"?>
<!-- Generator: Adobe Illustrator 21.0.1, SVG Export Plug-In . SVG Version: 6.00 Build 0)  -->
<svg version="1.1" id="Layer_1" xmlns="http://www.w3.org/2000/svg" xmlns:xlink="http://www.w3.org/1999/xlink" x="0px" y="0px"
	 viewBox="0 0 400 400" style="enable-background:new 0 0 400 400;" xml:space="preserve">
<style type="text/css">
	.st0{fill:#E2E2E2;}
	.st1{fill:#E82D28;}
	.st2{fill:#FF9912;}
	.st3{fill:none;stroke:#231F20;stroke-width:14.79;stroke-linecap:round;stroke-miterlimit:10;}
	.st4{fill:none;stroke:#231F20;stroke-width:14.79;stroke-linecap:round;stroke-linejoin:round;}
	.st5{fill:#231F20;}
</style>
<title>Artboard 1</title>
<path class="st0" d="M135.7,295.2c171.1-4.1,153.7-19.3,129-38c33.7,4.4,37.8,30.8,17.7,40.6S151.1,307.1,135.7,295.2z"/>
<path class="st1" d="M331.1,131.5c-1.7-12.7-8.5-23.2-13.9-25.6c-2.7-1.2-5.8-0.8-8,1.1c-1.8,1.6-2.9,3.8-3,6.1
	c-7.4-6.6-13.5-6.5-16.8-4c-2.5,1.7-3.3,5-1.9,7.7c0.5,0.9,1.1,1.8,1.6,2.7c2.6,4.3,5.6,9.2,6.5,13.8l0.3,1.4l1.4-0.5
	c5.1-1.6,10.3-2.6,15.6-2.9c5.6-0.4,11.2,0.1,16.6,1.4l1.8,0.5L331.1,131.5z"/>
<path class="st1" d="M325.5,186.3c-3.6,14.5-1.2,35.2-14.4,31.4C297.5,213.7,311.8,198.9,325.5,186.3z"/>
<path class="st2" d="M352.2,190.6c-0.2-0.7-4.5-16.7-9-23.4c-0.2-0.3-0.6-0.5-1-0.5l0,0c-0.4,0-0.8,0.2-1,0.6
	c-2.2,3.3-4.6,6.4-7.2,9.3c-2.8,2.8-5.7,5.5-8.8,8.1c-0.5,0.4-0.6,1.2-0.2,1.7c0.2,0.2,0.4,0.4,0.7,0.4c10,1.7,24.8,5.3,25,5.3
	c0.7,0.2,1.3-0.2,1.5-0.9C352.3,191,352.3,190.8,352.2,190.6L352.2,190.6z"/>
<path class="st0" d="M58.2,126.5c7.5-8.7,15.1-11.5,24.6-9.8c18.4,3.3,51.7,34.7,56,51.2c-21.4,1.4-40.3-41.2-63.2-41
	c-16.8,0.1-15.5,6.4-17.4,11.4C56.2,143.8,58.2,126.5,58.2,126.5z"/>
<path class="st0" d="M127.9,53.4c6-10.3,21.2-12.3,28.3-6.5s18.9,40.9,25.7,76.9c3.3,12,13.5,15.5,16.9,15.5
	C188.3,91,173.6,34.3,157,30.2S127.9,39,127.9,53.4z"/>
<path class="st0" d="M235.2,46.6c21.8-6.8,28.3,5.9,28.7,18.6s-25,102.2-25,110.8s7.6,15.7,7.6,15.7c16.4-38.8,24.5-79.4,24.5-79.4
	s15.6-57.2,3.3-65.8S247.5,31.5,235.2,46.6z"/>
<path class="st0" d="M271.3,256.6c-7-13.1-1.9-36.8,12.3-57.3c14.8-21.3,59.2-36.6,48.3-58.1c7.4,10,14,18.5-18,49.7
	s-31.2,68.3-31.2,68.3L271.3,256.6z"/>
<path class="st3" d="M134.6,256.6c-41.4,6.2-31.1,40-8.2,43.6c26.2,4,106.8,5.4,147.5,0.2c29.2-3.7,29.2-36.7,0.8-42.1
	C232.9,250.3,164.1,252.2,134.6,256.6z"/>
<path class="st4" d="M258.8,161.5c13.8-63.8,36-115.2,3.5-126.3c-39.3-13.5-42.1,38.3-61.7,98C183.1,67,174.4,23.7,143.1,31
	s-22.8,41.4-2.5,130.6c-30.2-33.9-58-59.4-77.7-41.2c-25.3,23.4,25.4,68.8,38.2,90.6s19,49.7,19,49.7"/>
<path class="st3" d="M280.3,258.2c6.3-46.7,35.6-68.8,52.3-86.1s11.6-44.2-24.9-37.2c-17.2,3.3-52.7,12.8-59.9,52"/>
<circle class="st5" cx="314.7" cy="156.4" r="5"/>
<path d="M146.2,345.9c-2.5,2.4-5.8,3.7-9.3,3.6c-9.1,0-12.6-5.7-12.7-12c0-6,4-12.3,12.7-12.3c3.4,0,6.6,1.3,9,3.7l-4,4
	c-1.3-1.3-3.1-2-4.9-2c-4.5,0-6.2,3.6-6.2,6.6s1.6,6.4,6.2,6.4c2.1-0.1,4-0.9,5.5-2.4L146.2,345.9z"/>
<path d="M163.8,348.9v-8.8h-8.3v8.8h-6.6v-23.1h6.6v8.8h8.3v-8.8h6.5v23.1H163.8z"/>
<path d="M175,348.9v-23.1h6.5v23.1H175z"/>
<path d="M206.9,345.9c-2.5,2.4-5.8,3.7-9.3,3.6c-9.1,0-12.6-5.7-12.7-12c0-6,4-12.3,12.7-12.3c3.4,0,6.6,1.3,9,3.7l-4,4
	c-1.3-1.3-3.1-2-4.9-2c-4.5,0-6.2,3.6-6.2,6.6s1.6,6.4,6.2,6.4c2.1-0.1,4-0.9,5.5-2.4L206.9,345.9z"/>
<path d="M230,326.1l-9.4,10.9c3.2,3.6,7,7.7,10.2,11.4v0.4h-8.1l-6.6-7.7v7.7h-6.6v-23.1h6.6v7.6c2-2.5,4.1-5.2,6.1-7.6h7.8V326.1z"
	/>
<path d="M251.3,348.9h-18.5v-23.1h18.1v5.5h-11.6v3.3h10.9v5.3h-10.9v3.5h12.1v5.5H251.3z"/>
<path d="M270.4,338.4c-0.2-2.8-0.2-3.8-0.2-4.7v-7.9h6.6v23.1h-5.6l-9.7-12.5l0.1,5.1v7.4H255v-23.1h5.5L270.4,338.4z"/>
<path d="M155.2,381v-8.8h-8.3v8.8h-6.6v-23.2h6.6v8.8h8.3v-8.8h6.5V381H155.2z"/>
<path d="M182.4,377.1H172l-1.5,3.8h-6.9l10.4-23.1h6.6l10.4,23.1h-7L182.4,377.1z M177.2,364.2l-3,7.4h5.9L177.2,364.2z"/>
<path d="M208.1,370.4c-0.2-2.8-0.2-3.8-0.2-4.7v-7.9h6.6v23.1h-5.6l-9.6-12.5l0.1,5.1v7.4h-6.6v-23.1h5.6L208.1,370.4z"/>
<path d="M229.1,357.8c8.2,0,12.1,5,12.1,11.4s-3.8,11.7-12.1,11.7h-9.9v-23.1H229.1z M225.6,375.4h3.4c4.2,0,5.6-3.1,5.6-6.3
	s-1.6-5.9-5.6-5.9h-3.4V375.4z"/>
<path d="M258.9,364.2c-1.6-1.1-3.5-1.7-5.4-1.6c-1.6,0-3.1,0.5-3.1,1.7c0,1.6,1.6,1.8,3.8,2c4.6,0.5,9.4,2.4,9.4,7.7
	s-5,7.5-10.1,7.5c-4.2,0-7.1-0.7-10.4-4.1l3.6-4.1c1.8,1.8,4.3,2.7,6.8,2.6c2.1,0,3.6-0.8,3.6-2s-1.3-1.9-3.9-2.1
	c-5.1-0.5-9.4-1.8-9.4-7.5c0-4.9,4.8-7,9.7-7c3.1-0.1,6.2,0.8,8.7,2.8L258.9,364.2z"/>
</svg>
